<?xml version="1.0" encoding="UTF-8" standalone="no"?>
<svg
   xmlns:dc="http://purl.org/dc/elements/1.1/"
   xmlns:cc="http://creativecommons.org/ns#"
   xmlns:rdf="http://www.w3.org/1999/02/22-rdf-syntax-ns#"
   xmlns:svg="http://www.w3.org/2000/svg"
   xmlns="http://www.w3.org/2000/svg"
   viewBox="0 0 507 200"
   height="200"
   width="507"
   xml:space="preserve"
   id="svg2"
   version="1.1"><metadata
     id="metadata8"><rdf:RDF><cc:Work
         rdf:about=""><dc:format>image/svg+xml</dc:format><dc:type
           rdf:resource="http://purl.org/dc/dcmitype/StillImage" /></cc:Work></rdf:RDF></metadata><defs
     id="defs6"><clipPath
       id="clipPath18"
       clipPathUnits="userSpaceOnUse"><path
         style="clip-rule:evenodd"
         id="path16"
         d="M 0,3.0518e-5 H 380.25 V 150.00003 H 0 Z" /></clipPath><clipPath
       id="clipPath28"
       clipPathUnits="userSpaceOnUse"><path
         style="clip-rule:evenodd"
         id="path26"
         d="M -9.54e-7,7.6294e-5 H 380.25 V 150.00008 H -9.54e-7 Z" /></clipPath><linearGradient
       id="linearGradient44"
       spreadMethod="pad"
       gradientUnits="userSpaceOnUse"
       y2="222.62"
       x2="341.39001"
       y1="-32.804001"
       x1="36.18"><stop
         id="stop30"
         offset="0"
         style="stop-opacity:1;stop-color:#ff0000" /><stop
         id="stop32"
         offset="0.17"
         style="stop-opacity:1;stop-color:#ff9300" /><stop
         id="stop34"
         offset="0.32"
         style="stop-opacity:1;stop-color:#ffff00" /><stop
         id="stop36"
         offset="0.5"
         style="stop-opacity:1;stop-color:#00fa00" /><stop
         id="stop38"
         offset="0.67"
         style="stop-opacity:1;stop-color:#00fdff" /><stop
         id="stop40"
         offset="0.83"
         style="stop-opacity:1;stop-color:#0432ff" /><stop
         id="stop42"
         offset="1"
         style="stop-opacity:1;stop-color:#942092" /></linearGradient><clipPath
       id="clipPath54"
       clipPathUnits="userSpaceOnUse"><path
         style="clip-rule:evenodd"
         id="path52"
         d="M 2.25,48 H 376.5 v 99.75 H 2.25 Z" /></clipPath><clipPath
       id="clipPath66"
       clipPathUnits="userSpaceOnUse"><path
         style="clip-rule:evenodd"
         id="path64"
         d="M 5.666e-6,0 H 380.25001 V 150 H 5.666e-6 Z" /></clipPath><clipPath
       id="clipPath78"
       clipPathUnits="userSpaceOnUse"><path
         style="clip-rule:evenodd"
         id="path76"
         d="M 5.666e-6,0 H 380.25001 V 150 H 5.666e-6 Z" /></clipPath><clipPath
       id="clipPath90"
       clipPathUnits="userSpaceOnUse"><path
         style="clip-rule:evenodd"
         id="path88"
         d="M 5.666e-6,0 H 380.25001 V 150 H 5.666e-6 Z" /></clipPath><clipPath
       id="clipPath102"
       clipPathUnits="userSpaceOnUse"><path
         style="clip-rule:evenodd"
         id="path100"
         d="M 5.666e-6,0 H 380.25001 V 150 H 5.666e-6 Z" /></clipPath></defs><g
     transform="matrix(1.3333333,0,0,-1.3333333,0,200)"
     id="g10"><g
       id="g12"><g
         clip-path="url(#clipPath18)"
         id="g14"><path
           id="path20"
           style="fill:#ffffff;fill-opacity:1;fill-rule:evenodd;stroke:none"
           d="m 0,-0.35075 h 380.25 v 150.35 H 0 Z" /></g></g><g
       id="g22"><g
         clip-path="url(#clipPath28)"
         id="g24"><path
           id="path46"
           style="fill:url(#linearGradient44);fill-opacity:1;fill-rule:evenodd;stroke:none"
           d="M 140.27,118.02 H 167.8 V 49.652 h -27.53 z m -45.754,1.49 c 8.354,0 15.814,-2.63 22.394,-7.88 6.58,-5.24 10.77,-12.701 12.56,-22.365 l -27.56,-0.862 c -1.995,2.79 -4.46,4.184 -7.394,4.184 -2.327,0 -4.326,-0.852 -5.996,-2.557 -1.671,-1.704 -2.506,-3.724 -2.506,-6.058 0,-2.401 0.844,-4.483 2.531,-6.245 1.688,-1.762 3.678,-2.643 5.971,-2.643 1.854,0 3.534,0.539 5.038,1.616 1.506,1.078 2.616,2.905 3.346,5.483 l 27.25,1.142 c -0.77,-10.913 -4.6,-19.501 -11.48,-25.764 -6.89,-6.263 -14.94,-9.395 -24.154,-9.395 -9.789,0 -18.175,3.505 -25.157,10.515 -6.982,7.01 -10.473,15.441 -10.473,25.291 0,9.775 3.488,18.138 10.464,25.098 6.977,6.96 15.365,10.44 25.166,10.44 z m 167.654,22.82 h 29.56 V 49.652 h -29.56 z m 80.37,2.15 c 9.49,0 17.51,-3.21 24.06,-9.64 6.54,-6.43 9.81,-14.34 9.81,-23.73 0,-9.48 -2.87,-16.917 -8.61,-22.312 -5.75,-5.395 -13.85,-8.092 -24.32,-8.092 h -5.44 v 26.244 c 5.42,0 8.13,1.66 8.13,4.97 0,2.87 -1.62,4.3 -4.85,4.3 -3.23,0 -4.85,-2.11 -4.85,-6.32 V 49.652 h -29.7 v 57.408 c 0,8.04 1.31,14.62 3.92,19.74 2.62,5.12 6.87,9.35 12.75,12.68 5.89,3.34 12.25,5 19.1,5 z m -126.75,0 c 9.49,0 17.51,-3.21 24.06,-9.64 6.54,-6.43 9.81,-14.34 9.81,-23.73 0,-9.48 -2.87,-16.917 -8.61,-22.312 -5.75,-5.395 -13.85,-8.092 -24.32,-8.092 h -5.44 v 26.244 c 5.42,0 8.13,1.66 8.13,4.97 0,2.87 -1.62,4.3 -4.85,4.3 -3.23,0 -4.85,-2.11 -4.85,-6.32 V 49.652 h -29.7 v 57.408 c 0,8.04 1.31,14.62 3.92,19.74 2.62,5.12 6.87,9.35 12.75,12.68 5.89,3.34 12.25,5 19.1,5 z m -175.837,0 c 3.923,0 8.038,-0.71 12.346,-2.14 v -28.01 c -3.102,0.72 -4.916,1.08 -5.442,1.08 -1.739,0 -3.23,-0.53 -4.472,-1.59 -1.242,-1.06 -1.863,-2.54 -1.863,-4.46 0,-1.97 0.702,-4.15 2.107,-6.55 l 2.031,-3.519 c 3.829,-6.709 5.744,-13.255 5.744,-19.639 0,-8.39 -3.229,-15.735 -9.687,-22.036 -6.458,-6.3 -14.474,-9.45 -24.048,-9.45 -4.814,0 -9.5158,1.011 -14.1057,3.034 V 79.544 C 6.203,77.922 9.0996,77.11 11.253,77.11 c 1.882,0 3.408,0.53 4.58,1.589 1.171,1.06 1.757,2.458 1.757,4.194 0,0.732 -1.206,3.203 -3.618,7.413 -4.0868,7.317 -6.1302,14.614 -6.1302,21.884 0,8.77 3.1522,16.34 9.4562,22.72 6.304,6.38 13.856,9.57 22.655,9.57 z m 114.287,2.84 c 3.74,0 6.89,-1.28 9.45,-3.83 2.56,-2.55 3.84,-5.65 3.84,-9.29 0,-3.72 -1.28,-6.86 -3.85,-9.42 -2.57,-2.56 -5.71,-3.84 -9.44,-3.84 -3.74,0 -6.89,1.28 -9.45,3.83 -2.56,2.56 -3.84,5.7 -3.84,9.43 0,3.65 1.27,6.75 3.83,9.3 2.55,2.55 5.7,3.82 9.46,3.82 z" /></g></g><g
       id="g48"><g
         clip-path="url(#clipPath54)"
         id="g50"><text
           id="text58"
           style="font-variant:normal;font-weight:normal;font-size:138.33000183px;font-family:STHupo;-inkscape-font-specification:STHupo;writing-mode:lr-tb;fill:#000000;fill-opacity:0;fill-rule:nonzero;stroke:#000000;stroke-width:3.95210004;stroke-linecap:butt;stroke-linejoin:miter;stroke-miterlimit:10;stroke-dasharray:none;stroke-opacity:0"
           transform="matrix(1,0,0,-1,-1.9,49.15)"><tspan
             id="tspan56"
             y="0"
             x="0 57.26862 135.14841 175.26411 255.49551 301.83606">SciPIP</tspan></text>
</g></g><g
       id="g60"><g
         clip-path="url(#clipPath66)"
         id="g62"><text
           id="text70"
           style="font-variant:normal;font-weight:normal;font-size:39.84999847px;font-family:TimesNewRomanPSMT;-inkscape-font-specification:TimesNewRomanPSMT;writing-mode:lr-tb;fill:#000000;fill-opacity:1;fill-rule:nonzero;stroke:none"
           transform="matrix(1,0,0,-1,5.85,11.2)"><tspan
             id="tspan68"
             y="0"
             x="0 36.024399 53.319302 73.563103">Make</tspan></text>
</g></g><g
       id="g72"><g
         clip-path="url(#clipPath78)"
         id="g74"><text
           id="text82"
           style="font-variant:normal;font-weight:normal;font-size:39.84999847px;font-family:TimesNewRomanPSMT;-inkscape-font-specification:TimesNewRomanPSMT;writing-mode:lr-tb;fill:#000000;fill-opacity:1;fill-rule:nonzero;stroke:none"
           transform="matrix(1,0,0,-1,105.08,11.2)"><tspan
             id="tspan80"
             y="0"
             x="0 29.2997">AI</tspan></text>
</g></g><g
       id="g84"><g
         clip-path="url(#clipPath90)"
         id="g86"><text
           id="text94"
           style="font-variant:normal;font-weight:normal;font-size:39.84999847px;font-family:TimesNewRomanPSMT;-inkscape-font-specification:TimesNewRomanPSMT;writing-mode:lr-tb;fill:#000000;fill-opacity:1;fill-rule:nonzero;stroke:none"
           transform="matrix(1,0,0,-1,157.48,11.2)"><tspan
             id="tspan92"
             y="0"
             x="0 13.4693 31.44165 46.465099 64.437447 82.409798 95.879097 113.174">research</tspan></text>
</g></g><g
       id="g96"><g
         clip-path="url(#clipPath102)"
         id="g98"><text
           id="text106"
           style="font-variant:normal;font-weight:normal;font-size:39.84999847px;font-family:TimesNewRomanPSMT;-inkscape-font-specification:TimesNewRomanPSMT;writing-mode:lr-tb;fill:#000000;fill-opacity:1;fill-rule:nonzero;stroke:none"
           transform="matrix(1,0,0,-1,301.27,11.2)"><tspan
             id="tspan104"
             y="0"
             x="0 18.012199 35.307098 51.047852">easy</tspan></text>
</g></g></g></svg>